<svg xmlns="http://www.w3.org/2000/svg" viewBox="0 0 725.18 113.54"><defs><style>.cls-1{fill:#00a1e0;}.cls-2,.cls-3{fill:#fff;}.cls-3{fill-rule:evenodd;}.cls-4{fill:#032e61;}.cls-5{fill:none;}.cls-6{fill:#008ab3;}.cls-7{fill:#b2b2b2;}.cls-8{fill:#686766;}</style></defs><title>Asset 1</title><g id="Layer_2" data-name="Layer 2"><g id="strategic_partner" data-name="strategic partner"><path class="cls-1" d="M445.84,24.1a21.53,21.53,0,0,1,34.49,4.54A26.17,26.17,0,0,1,491,26.37a26.69,26.69,0,0,1,0,53.37,26.23,26.23,0,0,1-5.21-.52,19.36,19.36,0,0,1-25.34,8,22.06,22.06,0,0,1-41-1,20.18,20.18,0,0,1-4.21.44A20.74,20.74,0,0,1,405,48a23.83,23.83,0,0,1,40.82-23.9Z"/><path class="cls-2" d="M412.55,59.27a.21.21,0,0,0,.05.28,6.48,6.48,0,0,0,.7.42,7.42,7.42,0,0,0,3.67.86c2.52,0,4.08-1.34,4.08-3.49v-.05c0-2-1.76-2.71-3.42-3.23l-.21-.07c-1.25-.41-2.33-.76-2.33-1.58v0c0-.71.63-1.22,1.61-1.22a7.39,7.39,0,0,1,3.2.81s.24.16.33-.07.47-1.26.51-1.38a.25.25,0,0,0-.12-.29,7.22,7.22,0,0,0-3.61-1h-.25c-2.3,0-3.91,1.39-3.91,3.38v0c0,2.1,1.77,2.78,3.43,3.26l.27.08c1.21.37,2.26.69,2.26,1.54v0c0,.78-.68,1.36-1.78,1.36a5.9,5.9,0,0,1-3.24-.93c-.18-.1-.28-.18-.41-.26s-.26-.12-.33.11Z"/><path class="cls-2" d="M449.4,59.27c-.08.2,0,.24.05.28a5.64,5.64,0,0,0,.7.42,7.4,7.4,0,0,0,3.67.86c2.52,0,4.08-1.34,4.08-3.49v-.05c0-2-1.77-2.71-3.42-3.23l-.22-.07c-1.24-.41-2.32-.76-2.32-1.58v0c0-.71.63-1.22,1.6-1.22a7.35,7.35,0,0,1,3.2.81s.25.16.34-.07.46-1.26.51-1.38a.26.26,0,0,0-.12-.29,7.22,7.22,0,0,0-3.61-1h-.25c-2.31,0-3.91,1.39-3.91,3.38v0c0,2.1,1.77,2.78,3.43,3.26l.27.08c1.21.37,2.26.69,2.26,1.54v0c0,.78-.68,1.36-1.78,1.36a5.89,5.89,0,0,1-3.24-.93c-.18-.1-.28-.17-.42-.26a.21.21,0,0,0-.33.11Z"/><path class="cls-2" d="M476.65,52.79A5,5,0,0,0,475.7,51a4.53,4.53,0,0,0-1.62-1.23,5.85,5.85,0,0,0-4.5,0A4.62,4.62,0,0,0,468,51a5.1,5.1,0,0,0-.95,1.82,8.39,8.39,0,0,0,0,4.52,5.1,5.1,0,0,0,.95,1.82,4.48,4.48,0,0,0,1.62,1.22,6,6,0,0,0,4.5,0,4.48,4.48,0,0,0,1.62-1.22,5,5,0,0,0,.95-1.82,8.39,8.39,0,0,0,0-4.52m-2.1,2.26a5.26,5.26,0,0,1-.67,2.86,2.28,2.28,0,0,1-2.05,1,2.22,2.22,0,0,1-2-1,5.17,5.17,0,0,1-.67-2.86,5.23,5.23,0,0,1,.66-2.85,2.62,2.62,0,0,1,4.09,0,5.16,5.16,0,0,1,.67,2.84"/><path class="cls-3" d="M493.91,58.58a.2.2,0,0,0-.27-.13,4.44,4.44,0,0,1-1,.28,6.92,6.92,0,0,1-1.15.08,3.17,3.17,0,0,1-2.4-.9A4,4,0,0,1,488.2,55a4.49,4.49,0,0,1,.81-2.77,2.76,2.76,0,0,1,2.33-1,6.92,6.92,0,0,1,2.22.32s.17.07.25-.15c.18-.51.32-.87.51-1.44a.18.18,0,0,0-.13-.24,8.23,8.23,0,0,0-1.4-.36,10.5,10.5,0,0,0-1.58-.1,5.71,5.71,0,0,0-2.34.45A4.9,4.9,0,0,0,487.18,51a5.28,5.28,0,0,0-1,1.83,7.14,7.14,0,0,0-.34,2.26,6.08,6.08,0,0,0,1.39,4.18,5.3,5.3,0,0,0,4.15,1.56,8.43,8.43,0,0,0,3-.53.19.19,0,0,0,.08-.25Z"/><path class="cls-3" d="M504.65,52.4a4.41,4.41,0,0,0-.9-1.67,4.18,4.18,0,0,0-1.36-1,5.1,5.1,0,0,0-2-.41,5.51,5.51,0,0,0-2.35.46A4.54,4.54,0,0,0,496.37,51a5.34,5.34,0,0,0-1,1.85,7.93,7.93,0,0,0-.31,2.27,7.73,7.73,0,0,0,.32,2.27,4.7,4.7,0,0,0,1,1.81,4.59,4.59,0,0,0,1.79,1.18,7.08,7.08,0,0,0,2.58.42,7.29,7.29,0,0,0,3.58-.71c.08,0,.16-.12.06-.34l-.46-1.3a.21.21,0,0,0-.27-.13,6.87,6.87,0,0,1-2.92.53,3.35,3.35,0,0,1-2.43-.84,3.3,3.3,0,0,1-.83-2.36h7.11a.21.21,0,0,0,.21-.18A7.77,7.77,0,0,0,504.65,52.4Zm-7.07,1.48a4.17,4.17,0,0,1,.58-1.68,2.27,2.27,0,0,1,2-1,2.2,2.2,0,0,1,2,1,3.39,3.39,0,0,1,.47,1.67Z"/><path class="cls-3" d="M447.7,52.4a4.41,4.41,0,0,0-.91-1.67,4.26,4.26,0,0,0-1.35-1,5.19,5.19,0,0,0-2-.41,5.51,5.51,0,0,0-2.35.46A4.72,4.72,0,0,0,439.41,51a5.34,5.34,0,0,0-1,1.85,7.93,7.93,0,0,0-.31,2.27,7.73,7.73,0,0,0,.32,2.27,4.7,4.7,0,0,0,1,1.81,4.59,4.59,0,0,0,1.79,1.18,7.12,7.12,0,0,0,2.58.42,7.26,7.26,0,0,0,3.58-.71c.08,0,.16-.12.06-.34l-.46-1.3a.21.21,0,0,0-.27-.13,6.87,6.87,0,0,1-2.92.53,3.35,3.35,0,0,1-2.43-.84,3.3,3.3,0,0,1-.83-2.36h7.11a.21.21,0,0,0,.21-.18A7.66,7.66,0,0,0,447.7,52.4Zm-7.08,1.48a4.17,4.17,0,0,1,.58-1.68,2.27,2.27,0,0,1,2-1,2.19,2.19,0,0,1,2,1,3.39,3.39,0,0,1,.48,1.67Z"/><path class="cls-2" d="M428.08,53.54q-.43,0-1.11,0a7.11,7.11,0,0,0-1.75.22,4.74,4.74,0,0,0-1.49.69,3.35,3.35,0,0,0-1.41,2.82,3.66,3.66,0,0,0,.33,1.62,2.92,2.92,0,0,0,.92,1.11,4,4,0,0,0,1.45.63,8.46,8.46,0,0,0,1.89.19,12.94,12.94,0,0,0,2.16-.18c.7-.12,1.55-.29,1.79-.35l.5-.12a.24.24,0,0,0,.16-.24V53.4a4,4,0,0,0-1.13-3.14,4.87,4.87,0,0,0-3.27-1,12.11,12.11,0,0,0-1.91.17,6.7,6.7,0,0,0-2.19.81.21.21,0,0,0-.06.28l.5,1.35a.18.18,0,0,0,.23.12l.12-.06a7.12,7.12,0,0,1,3.1-.72,2.84,2.84,0,0,1,1.76.46c.38.29.58.74.58,1.69v.3C428.64,53.59,428.08,53.54,428.08,53.54Zm-2.83,5a1.37,1.37,0,0,1-.41-.42,1.73,1.73,0,0,1-.21-.93,1.54,1.54,0,0,1,.63-1.37,3.15,3.15,0,0,1,2.06-.52,15.5,15.5,0,0,1,1.94.17V58.7h0a16,16,0,0,1-1.93.26A3.24,3.24,0,0,1,425.25,58.54Z"/><path class="cls-3" d="M485.44,49.88a.2.2,0,0,0-.1-.26,7,7,0,0,0-1.2-.2,3.47,3.47,0,0,0-1.83.29,3.17,3.17,0,0,0-1.2.89v-.87a.21.21,0,0,0-.21-.21h-1.82a.2.2,0,0,0-.2.21V60.34a.21.21,0,0,0,.21.22H481a.22.22,0,0,0,.22-.22V55a6.4,6.4,0,0,1,.23-1.86,2.67,2.67,0,0,1,.63-1,2.13,2.13,0,0,1,.87-.53,3.49,3.49,0,0,1,1-.13,4.26,4.26,0,0,1,.78.09c.14,0,.21-.07.26-.19C485,51.05,485.38,50.07,485.44,49.88Z"/><path class="cls-3" d="M467.9,45a5.1,5.1,0,0,0-1.67-.24,4.06,4.06,0,0,0-3,1.08A5.92,5.92,0,0,0,461.79,49l-.08.48h-1.62a.24.24,0,0,0-.24.2l-.26,1.48c0,.15,0,.23.23.23h1.57l-1.59,8.9a11.62,11.62,0,0,1-.43,1.76,3.64,3.64,0,0,1-.5,1,1.3,1.3,0,0,1-.65.5,2.64,2.64,0,0,1-.83.12,3.68,3.68,0,0,1-.57-.06,1.37,1.37,0,0,1-.39-.13.19.19,0,0,0-.25.12c-.06.15-.48,1.3-.53,1.44a.22.22,0,0,0,.11.29,6.77,6.77,0,0,0,.65.19,4.44,4.44,0,0,0,1,.1,5.5,5.5,0,0,0,1.75-.27,3.34,3.34,0,0,0,1.31-.92,4.85,4.85,0,0,0,.92-1.59,13.41,13.41,0,0,0,.63-2.39l1.6-9.07H466a.24.24,0,0,0,.24-.2l.27-1.48c0-.14,0-.23-.23-.23H464a10.08,10.08,0,0,1,.38-1.61,1.93,1.93,0,0,1,.5-.75,1.5,1.5,0,0,1,.59-.38,2.58,2.58,0,0,1,.76-.11,3.25,3.25,0,0,1,.59.06l.36.09c.23.07.27,0,.31-.11l.55-1.49A.2.2,0,0,0,467.9,45Z"/><path class="cls-3" d="M436.13,60.34a.21.21,0,0,1-.2.22H434a.21.21,0,0,1-.2-.22V45.16A.2.2,0,0,1,434,45h1.89a.2.2,0,0,1,.2.21Z"/><path class="cls-4" d="M539.45,59.11a4.49,4.49,0,0,1,2.26-4.34,14.8,14.8,0,0,1,6.8-1.21c.73,0,1.29,0,1.67,0v-.92a3.45,3.45,0,0,0-1-2.68,4.35,4.35,0,0,0-3-.88,9.19,9.19,0,0,0-4.82,1.36l-1-1.8A11.06,11.06,0,0,1,546.36,47q3.38,0,4.94,1.58a6.59,6.59,0,0,1,1.56,4.8v6.56a31.36,31.36,0,0,0,.22,3.57h-2.46a14.4,14.4,0,0,1-.22-2.18h-.09a5.75,5.75,0,0,1-2.23,2,7.8,7.8,0,0,1-3.45.66,5.51,5.51,0,0,1-3.76-1.25A4.52,4.52,0,0,1,539.45,59.11Zm10.73-1.54V55.48l-1.42,0a17.89,17.89,0,0,0-3.77.32,3.77,3.77,0,0,0-2.08,1.07,3,3,0,0,0-.68,2.11,2.7,2.7,0,0,0,.82,2.13,3.23,3.23,0,0,0,2.27.74,5.11,5.11,0,0,0,2.62-.64,4.44,4.44,0,0,0,1.67-1.63A3.88,3.88,0,0,0,550.18,57.57Z"/><path class="cls-4" d="M572.43,55.45a10.2,10.2,0,0,1-.89,4.32,7.11,7.11,0,0,1-2.57,3,7,7,0,0,1-4,1.12,7.59,7.59,0,0,1-5.27-2v9.24h-2.68V51a29.43,29.43,0,0,0-.22-3.59h2.55a24.11,24.11,0,0,1,.23,2.46h.06a5.71,5.71,0,0,1,2.21-2.12,7.09,7.09,0,0,1,3.47-.79,6.52,6.52,0,0,1,3.88,1.13,6.9,6.9,0,0,1,2.38,3A11,11,0,0,1,572.43,55.45Zm-2.78,0a7.55,7.55,0,0,0-1.28-4.61,4.19,4.19,0,0,0-3.55-1.7,5.11,5.11,0,0,0-2.65.69,4.77,4.77,0,0,0-1.8,1.9,5.54,5.54,0,0,0-.63,2.62v5.33a7.84,7.84,0,0,0,2.2,1.61,6,6,0,0,0,2.5.5A4.58,4.58,0,0,0,568.31,60,7.38,7.38,0,0,0,569.65,55.45Z"/><path class="cls-4" d="M591.15,55.45a10.36,10.36,0,0,1-.88,4.32,7.13,7.13,0,0,1-2.58,3,7,7,0,0,1-4,1.12,7.57,7.57,0,0,1-5.27-2v9.24h-2.69V51a29.43,29.43,0,0,0-.22-3.59h2.56a24.39,24.39,0,0,1,.22,2.46h.06a5.78,5.78,0,0,1,2.21-2.12,7.12,7.12,0,0,1,3.47-.79A6.5,6.5,0,0,1,588,48.12a6.92,6.92,0,0,1,2.39,3A11.15,11.15,0,0,1,591.15,55.45Zm-2.78,0a7.55,7.55,0,0,0-1.27-4.61,4.22,4.22,0,0,0-3.55-1.7,5.08,5.08,0,0,0-2.65.69,4.77,4.77,0,0,0-1.8,1.9,5.54,5.54,0,0,0-.63,2.62v5.33a7.67,7.67,0,0,0,2.19,1.61,6,6,0,0,0,2.51.5A4.56,4.56,0,0,0,587,60,7.32,7.32,0,0,0,588.37,55.45Z"/><path class="cls-4" d="M608.28,56.43H596.36a6.19,6.19,0,0,0,1.48,3.91,4.85,4.85,0,0,0,3.79,1.45,8.11,8.11,0,0,0,2.6-.39,10,10,0,0,0,2.32-1.18l1.2,1.73a10.55,10.55,0,0,1-2.89,1.48,10.67,10.67,0,0,1-3.39.51,7.29,7.29,0,0,1-5.76-2.34,9,9,0,0,1-2.07-6.21,10.27,10.27,0,0,1,.89-4.39,6.78,6.78,0,0,1,2.57-3,7.49,7.49,0,0,1,4-1.06,6.48,6.48,0,0,1,5.35,2.28,9.25,9.25,0,0,1,1.85,6A6.43,6.43,0,0,1,608.28,56.43Zm-2.55-2.08a6.28,6.28,0,0,0-1.23-3.85,4.08,4.08,0,0,0-3.38-1.45,4.26,4.26,0,0,0-3.47,1.49,6.28,6.28,0,0,0-1.33,3.81Z"/><path class="cls-4" d="M625.51,63.5h-3.22l-4.92-6.76-4.73,6.76h-3.16l6.25-8.43-5.55-7.63h3.06l4.26,6.09,4.23-6.09h2.9l-5.49,7.63Z"/><path class="cls-4" d="M634,47a9.25,9.25,0,0,1,2.89.46,8.34,8.34,0,0,1,2.44,1.28l-1.07,1.86A7,7,0,0,0,634,49.23a4.67,4.67,0,0,0-3.91,1.69,7.12,7.12,0,0,0-1.33,4.53,7.15,7.15,0,0,0,1.33,4.5,4.6,4.6,0,0,0,3.88,1.72,8.06,8.06,0,0,0,4.32-1.36l1,1.89a9.11,9.11,0,0,1-5.49,1.74,7.59,7.59,0,0,1-4.45-1.22,6.89,6.89,0,0,1-2.51-3.14,11.07,11.07,0,0,1-.77-4.13,8.73,8.73,0,0,1,2.11-6.15A7.53,7.53,0,0,1,634,47Z"/><path class="cls-4" d="M642.06,41.16h2.68v8.52h.06A5.94,5.94,0,0,1,647,47.74a6.82,6.82,0,0,1,3.34-.75,5.51,5.51,0,0,1,4.49,1.76,6.64,6.64,0,0,1,1.45,4.37V63.5h-2.69V53.65a5.1,5.1,0,0,0-.94-3.17,3.6,3.6,0,0,0-3.06-1.25,4.49,4.49,0,0,0-3.49,1.44,5.17,5.17,0,0,0-1.31,3.61V63.5h-2.68Z"/><path class="cls-4" d="M659.19,59.11a4.49,4.49,0,0,1,2.26-4.34,14.8,14.8,0,0,1,6.8-1.21c.73,0,1.29,0,1.67,0v-.92a3.45,3.45,0,0,0-1-2.68,4.34,4.34,0,0,0-3-.88,9.2,9.2,0,0,0-4.83,1.36l-1-1.8A11.06,11.06,0,0,1,666.1,47q3.38,0,4.94,1.58a6.59,6.59,0,0,1,1.56,4.8v6.56a31.36,31.36,0,0,0,.22,3.57h-2.46a14.4,14.4,0,0,1-.22-2.18h-.09a5.75,5.75,0,0,1-2.23,2,7.8,7.8,0,0,1-3.45.66,5.51,5.51,0,0,1-3.76-1.25A4.52,4.52,0,0,1,659.19,59.11Zm10.73-1.54V55.48l-1.42,0a17.89,17.89,0,0,0-3.77.32,3.77,3.77,0,0,0-2.08,1.07A3,3,0,0,0,662,59a2.7,2.7,0,0,0,.82,2.13,3.23,3.23,0,0,0,2.27.74,5.11,5.11,0,0,0,2.62-.64,4.44,4.44,0,0,0,1.67-1.63A3.88,3.88,0,0,0,669.92,57.57Z"/><path class="cls-4" d="M676.76,51a31.57,31.57,0,0,0-.22-3.59h2.55a15.93,15.93,0,0,1,.22,2.27h.07a5.62,5.62,0,0,1,2.2-2A7.17,7.17,0,0,1,685,47a5.54,5.54,0,0,1,4.5,1.76,6.59,6.59,0,0,1,1.46,4.37V63.5h-2.68V53.65a5.1,5.1,0,0,0-.94-3.17,3.61,3.61,0,0,0-3.06-1.25,4.47,4.47,0,0,0-3.49,1.44,5.17,5.17,0,0,0-1.31,3.61V63.5h-2.68Z"/><path class="cls-4" d="M693.13,66.78a4.1,4.1,0,0,1,.77-2.45,6.73,6.73,0,0,1,2.54-2,2.25,2.25,0,0,1-1.55-2.11,2.18,2.18,0,0,1,.62-1.52,3.73,3.73,0,0,1,1.72-1,5,5,0,0,1-2.32-1.83,5.41,5.41,0,0,1-.84-3.12,5.32,5.32,0,0,1,1.77-4.23A7.23,7.23,0,0,1,700.76,47a9.69,9.69,0,0,1,1.44.09,13.1,13.1,0,0,1,1.4.32h5.59v2.14l-3.57-.38a3.83,3.83,0,0,1,1.23,1.52,5.24,5.24,0,0,1,.48,2.33,4.87,4.87,0,0,1-1.74,4,7.41,7.41,0,0,1-4.86,1.44,6.18,6.18,0,0,0-2.48.41,1.26,1.26,0,0,0-.89,1.14c0,.86,1,1.3,3,1.32q4.46.06,6.46,1.19a3.64,3.64,0,0,1,2,3.39,4.72,4.72,0,0,1-2.26,4.19,11.43,11.43,0,0,1-6.32,1.48,9.37,9.37,0,0,1-5.35-1.26A4.08,4.08,0,0,1,693.13,66.78Zm13.09-.63a2,2,0,0,0-.71-1.55,5.33,5.33,0,0,0-2.41-.91,27,27,0,0,0-4.67-.32,5.21,5.21,0,0,0-2,1.44,2.9,2.9,0,0,0-.64,1.84c0,2,1.55,2.93,4.64,2.93a8.64,8.64,0,0,0,4.36-.88A2.8,2.8,0,0,0,706.22,66.15Zm-1.39-13.32a3.72,3.72,0,0,0-1-2.77A4.16,4.16,0,0,0,700.7,49a4.33,4.33,0,0,0-3,1,3.48,3.48,0,0,0-1.12,2.72,3.79,3.79,0,0,0,1,2.81,4.28,4.28,0,0,0,3.11,1C703.45,56.56,704.83,55.31,704.83,52.83Z"/><path class="cls-4" d="M725.12,56.43H713.19a6.19,6.19,0,0,0,1.48,3.91,4.88,4.88,0,0,0,3.79,1.45,8.07,8.07,0,0,0,2.6-.39,10,10,0,0,0,2.32-1.18l1.2,1.73a10.55,10.55,0,0,1-2.89,1.48,10.67,10.67,0,0,1-3.39.51,7.29,7.29,0,0,1-5.76-2.34,9,9,0,0,1-2.06-6.21,10.27,10.27,0,0,1,.88-4.39,6.78,6.78,0,0,1,2.57-3A7.54,7.54,0,0,1,718,47a6.48,6.48,0,0,1,5.35,2.28,9.25,9.25,0,0,1,1.85,6A7.88,7.88,0,0,1,725.12,56.43Zm-2.56-2.08a6.21,6.21,0,0,0-1.23-3.85A4.07,4.07,0,0,0,718,49.05a4.26,4.26,0,0,0-3.47,1.49,6.21,6.21,0,0,0-1.32,3.81Z"/><path class="cls-4" d="M550.66,83.21a6.31,6.31,0,0,1-.54,2.65,4.39,4.39,0,0,1-1.57,1.86,4.34,4.34,0,0,1-2.42.68,4.64,4.64,0,0,1-3.22-1.21v5.65h-1.64V80.51a18.28,18.28,0,0,0-.14-2.19h1.57c.06.42.1.92.13,1.5h0a3.49,3.49,0,0,1,1.35-1.29,4.32,4.32,0,0,1,2.12-.48,4,4,0,0,1,2.37.68,4.33,4.33,0,0,1,1.46,1.85A6.7,6.7,0,0,1,550.66,83.21Zm-1.7,0a4.57,4.57,0,0,0-.78-2.81,2.56,2.56,0,0,0-2.17-1,3.16,3.16,0,0,0-1.62.42,3,3,0,0,0-1.1,1.16,3.46,3.46,0,0,0-.38,1.6V85.8a4.57,4.57,0,0,0,1.34,1,3.51,3.51,0,0,0,1.53.31A2.79,2.79,0,0,0,548.14,86,4.47,4.47,0,0,0,549,83.21Z"/><path class="cls-4" d="M552.84,80.51a20.56,20.56,0,0,0-.13-2.19h1.56a15.29,15.29,0,0,1,.13,1.56h0a3.1,3.1,0,0,1,3.09-1.83l.55,0L558,79.51a4,4,0,0,0-.6,0,2.6,2.6,0,0,0-2.16,1,3.83,3.83,0,0,0-.75,2.45v5.26h-1.64Z"/><path class="cls-4" d="M567.73,83.81h-7.28a3.74,3.74,0,0,0,.9,2.39,3,3,0,0,0,2.32.89,4.92,4.92,0,0,0,1.59-.24,5.88,5.88,0,0,0,1.41-.72l.74,1.06a6.37,6.37,0,0,1-3.84,1.21A4.46,4.46,0,0,1,560.05,87a5.55,5.55,0,0,1-1.26-3.8,6.25,6.25,0,0,1,.54-2.68,4.14,4.14,0,0,1,1.57-1.81,4.58,4.58,0,0,1,2.48-.64,3.94,3.94,0,0,1,3.26,1.39,5.6,5.6,0,0,1,1.13,3.68A4,4,0,0,1,567.73,83.81Zm-1.56-1.27a3.79,3.79,0,0,0-.75-2.35,2.5,2.5,0,0,0-2.06-.89,2.58,2.58,0,0,0-2.12.92,3.74,3.74,0,0,0-.81,2.32Z"/><path class="cls-4" d="M569.92,80.51a18.23,18.23,0,0,0-.13-2.19h1.56a10,10,0,0,1,.14,1.39h0a3.44,3.44,0,0,1,1.3-1.2,3.92,3.92,0,0,1,1.94-.46,3.56,3.56,0,0,1,2,.53A3.09,3.09,0,0,1,578,80h0a3.82,3.82,0,0,1,1.37-1.45,3.89,3.89,0,0,1,2.09-.53,3.55,3.55,0,0,1,2,.53,3.17,3.17,0,0,1,1.2,1.39,4.64,4.64,0,0,1,.38,1.88v6.28h-1.64v-6a3.17,3.17,0,0,0-.55-1.91,2,2,0,0,0-1.76-.77,2.49,2.49,0,0,0-1.52.46,2.89,2.89,0,0,0-1,1.23,4.2,4.2,0,0,0-.33,1.66v5.38h-1.63V82a3.1,3.1,0,0,0-.56-1.88,2,2,0,0,0-1.76-.76,2.51,2.51,0,0,0-2,.89,3.35,3.35,0,0,0-.76,2.21v5.63h-1.64Z"/><path class="cls-4" d="M587.49,75a1.07,1.07,0,0,1,2.14,0,1.05,1.05,0,0,1-.26.73,1,1,0,0,1-.81.27,1.06,1.06,0,0,1-.82-.27A1,1,0,0,1,587.49,75Zm1.88,13.17h-1.63V78.32h1.63Z"/><path class="cls-4" d="M600.5,83.81h-7.29a3.74,3.74,0,0,0,.9,2.39,3,3,0,0,0,2.32.89,4.92,4.92,0,0,0,1.59-.24,5.88,5.88,0,0,0,1.41-.72l.74,1.06a6.3,6.3,0,0,1-1.77.9,6.43,6.43,0,0,1-2.07.31A4.46,4.46,0,0,1,592.81,87a5.55,5.55,0,0,1-1.26-3.8,6.25,6.25,0,0,1,.54-2.68,4.14,4.14,0,0,1,1.57-1.81,4.58,4.58,0,0,1,2.48-.64,4,4,0,0,1,3.27,1.39,5.65,5.65,0,0,1,1.12,3.68A5.73,5.73,0,0,1,600.5,83.81Zm-1.57-1.27a3.73,3.73,0,0,0-.75-2.35,2.48,2.48,0,0,0-2.06-.89,2.58,2.58,0,0,0-2.12.92,3.8,3.8,0,0,0-.81,2.32Z"/><path class="cls-4" d="M602.69,80.51a18.28,18.28,0,0,0-.14-2.19h1.57a15.29,15.29,0,0,1,.13,1.56h0a3.1,3.1,0,0,1,3.09-1.83l.56,0-.1,1.41a4,4,0,0,0-.6,0,2.6,2.6,0,0,0-2.16,1,3.83,3.83,0,0,0-.75,2.45v5.26h-1.64Z"/><path class="cls-4" d="M623.3,83.21a6.31,6.31,0,0,1-.54,2.65,4.39,4.39,0,0,1-1.57,1.86,4.32,4.32,0,0,1-2.42.68,4.64,4.64,0,0,1-3.22-1.21v5.65h-1.64V80.51a20.56,20.56,0,0,0-.13-2.19h1.56a14,14,0,0,1,.13,1.5h0a3.49,3.49,0,0,1,1.35-1.29,4.34,4.34,0,0,1,2.12-.48,4,4,0,0,1,2.37.68,4.26,4.26,0,0,1,1.46,1.85A6.7,6.7,0,0,1,623.3,83.21Zm-1.7,0a4.57,4.57,0,0,0-.78-2.81,2.56,2.56,0,0,0-2.17-1,3.16,3.16,0,0,0-1.62.42,3,3,0,0,0-1.1,1.16,3.46,3.46,0,0,0-.38,1.6V85.8a4.7,4.7,0,0,0,1.34,1,3.51,3.51,0,0,0,1.53.31A2.79,2.79,0,0,0,620.78,86,4.47,4.47,0,0,0,621.6,83.21Z"/><path class="cls-4" d="M624.77,85.45a2.74,2.74,0,0,1,1.38-2.65,9.15,9.15,0,0,1,4.16-.74c.45,0,.79,0,1,0v-.56a2.1,2.1,0,0,0-.6-1.64,2.67,2.67,0,0,0-1.83-.54,5.7,5.7,0,0,0-2.95.83l-.58-1.1a6.82,6.82,0,0,1,3.63-1,4.13,4.13,0,0,1,3,1,4,4,0,0,1,1,2.93v4a20.37,20.37,0,0,0,.13,2.18h-1.5a8.83,8.83,0,0,1-.13-1.33h-.06a3.55,3.55,0,0,1-1.36,1.2,4.78,4.78,0,0,1-2.11.4,3.36,3.36,0,0,1-2.3-.76A2.76,2.76,0,0,1,624.77,85.45Zm6.56-.94V83.23l-.87,0a10.75,10.75,0,0,0-2.3.2,2.39,2.39,0,0,0-1.27.65,1.86,1.86,0,0,0-.42,1.3,1.68,1.68,0,0,0,.5,1.3,2,2,0,0,0,1.39.45,3.14,3.14,0,0,0,1.6-.39,2.8,2.8,0,0,0,1-1A2.4,2.4,0,0,0,631.33,84.51Z"/><path class="cls-4" d="M635.64,80.51a18.23,18.23,0,0,0-.13-2.19h1.56a15.29,15.29,0,0,1,.13,1.56h0a3.11,3.11,0,0,1,3.09-1.83l.56,0-.1,1.41a4,4,0,0,0-.6,0,2.6,2.6,0,0,0-2.16,1,3.83,3.83,0,0,0-.75,2.45v5.26h-1.64Z"/><path class="cls-4" d="M645.1,78.32h2.61v1.25H645.1v5.92c0,1.05.49,1.58,1.45,1.58a3.23,3.23,0,0,0,1-.13l.26,1.21a4.23,4.23,0,0,1-1.53.25,2.78,2.78,0,0,1-2-.72,2.72,2.72,0,0,1-.74-2.06V79.57h-1.74V78.51l1.72-.19V75.91l1.65-.58Z"/><path class="cls-4" d="M649.58,80.51a18.28,18.28,0,0,0-.14-2.19H651a10,10,0,0,1,.14,1.39h0a3.46,3.46,0,0,1,1.35-1.21,4.41,4.41,0,0,1,2.06-.45,3.36,3.36,0,0,1,2.75,1.07,4,4,0,0,1,.9,2.67v6.34H656.6v-6a3.15,3.15,0,0,0-.58-1.94,2.2,2.2,0,0,0-1.87-.76,2.74,2.74,0,0,0-2.13.87,3.15,3.15,0,0,0-.8,2.21v5.63h-1.64Z"/><path class="cls-4" d="M669.3,83.81H662a3.8,3.8,0,0,0,.91,2.39,2.94,2.94,0,0,0,2.31.89,4.92,4.92,0,0,0,1.59-.24,5.94,5.94,0,0,0,1.42-.72l.73,1.06a6.24,6.24,0,0,1-1.76.9,6.43,6.43,0,0,1-2.07.31A4.45,4.45,0,0,1,661.62,87a5.56,5.56,0,0,1-1.27-3.8,6.11,6.11,0,0,1,.55-2.68,4.08,4.08,0,0,1,1.57-1.81,4.54,4.54,0,0,1,2.47-.64,4,4,0,0,1,3.27,1.39,5.6,5.6,0,0,1,1.13,3.68A4,4,0,0,1,669.3,83.81Zm-1.56-1.27a3.85,3.85,0,0,0-.75-2.35,2.51,2.51,0,0,0-2.06-.89,2.61,2.61,0,0,0-2.13.92,3.8,3.8,0,0,0-.81,2.32Z"/><path class="cls-4" d="M671.49,80.51a18.23,18.23,0,0,0-.13-2.19h1.56a15.29,15.29,0,0,1,.13,1.56h0a3.11,3.11,0,0,1,3.09-1.83l.56,0-.1,1.41a4,4,0,0,0-.6,0,2.61,2.61,0,0,0-2.16,1,3.83,3.83,0,0,0-.75,2.45v5.26h-1.64Z"/><path class="cls-5" d="M188.31,49.14c-5.74,0-8.94,4.72-8.94,10.18s3.2,10.24,8.94,10.24,9-4.72,9-10.24S194.05,49.14,188.31,49.14Z"/><path class="cls-6" d="M68.71,33.64a14.43,14.43,0,0,0-13.44-9.36,14,14,0,0,0-5.66,1.17,22.26,22.26,0,0,0-15.46-6.18A22.52,22.52,0,0,0,11.74,40.16,19.15,19.15,0,0,0,19.16,77h7.09l1.12-7.56H19.23A11.64,11.64,0,0,1,7.77,57.81a11.33,11.33,0,0,1,8.76-11.06L19.72,46l-.23-3.54v-.07c0-.21,0-.43,0-.65a14.68,14.68,0,0,1,26.31-9l2.36,3.05.09-.15A7.65,7.65,0,0,1,62.5,39.47a18.74,18.74,0,0,1-.35,2.58l0,.18.18,0a27.25,27.25,0,0,1,6-.77,14,14,0,1,1,0,28H63.76L59.51,77h9.05c11.88-.37,21.54-10,21.54-21.58A21.84,21.84,0,0,0,68.71,33.64Z"/><polygon class="cls-6" points="124.21 65.71 110.76 28.43 98.99 28.43 117.74 76.9 130.68 76.9 149.36 28.43 137.58 28.43 124.21 65.71"/><rect class="cls-6" x="154.37" y="28.43" width="9.23" height="48.48"/><path class="cls-6" d="M188.31,40.93c-11.56,0-18.53,8.43-18.53,18.39s7,18.46,18.53,18.46,18.61-8.43,18.61-18.46S199.94,40.93,188.31,40.93Zm0,28.63c-5.74,0-8.94-4.72-8.94-10.24s3.2-10.18,8.94-10.18,9,4.72,9,10.18S194.05,69.56,188.31,69.56Z"/><path class="cls-6" d="M229.81,49.14a8.51,8.51,0,0,1,7.41,3.78l6-5.67c-2.32-3.2-6.68-6.32-13.88-6.32-10.83,0-18.6,7.63-18.6,18.39s7.77,18.46,18.6,18.46c7.2,0,11.56-3.13,13.88-6.4l-6-5.6a8.84,8.84,0,0,1-7.41,3.78c-5.6,0-9.52-4.14-9.52-10.24S224.21,49.14,229.81,49.14Z"/><rect class="cls-6" x="248.56" y="41.8" width="9.23" height="35.11"/><path class="cls-6" d="M253.14,27a5.51,5.51,0,0,0-5.53,5.46,5.53,5.53,0,0,0,11.05,0A5.46,5.46,0,0,0,253.14,27Z"/><path class="cls-6" d="M282,69.56c-2,0-3.2-1.67-3.2-3.85V49.87h7.13V41.8h-7.13V32.21h-9.3V41.8h-5.81v8.07h5.81V68.18c0,6.25,3.49,9.6,10,9.6,3.85,0,6.32-1,7.7-2.26l-2-7A5.11,5.11,0,0,1,282,69.56Z"/><path class="cls-6" d="M308.45,66.22,299.29,41.8H289.4l14.25,35.61-1.31,3c-.87,1.89-2.47,2.55-4.87,2.55a8.07,8.07,0,0,1-2.91-.58l-1.38,8.28a25.38,25.38,0,0,0,4.58.51c6-.15,10.69-1.89,13.3-8.5l16.5-40.85h-10Z"/><polygon class="cls-7" points="334.16 42.77 336.02 42.77 336.02 47.97 337.1 47.97 337.1 42.77 338.96 42.77 338.96 41.82 334.16 41.82 334.16 42.77"/><polygon class="cls-7" points="344.97 41.82 343.29 45.87 341.62 41.82 340.1 41.82 340.1 47.97 341.18 47.97 341.18 43.41 343.06 47.97 343.52 47.97 345.41 43.41 345.41 47.97 346.49 47.97 346.49 41.82 344.97 41.82"/><polygon class="cls-6" points="52.61 47.59 38.52 47.59 33.27 77.02 42.87 77.05 39.4 99.36 56.32 69.4 44.9 69.37 52.61 47.59"/><rect class="cls-8" x="367.34" width="2" height="113.54"/></g></g></svg>